PathFileType	4	(X/Y/Z)	Run_200 02
DataRate	CameraRate	NumFrames	NumMarkers	Units	OrigDataRate	OrigDataStartFrame	OrigNumFrames
100	100	4	45	mm	100	86	137
Frame#	Time	RASI			LPSI			RTH1			RTH2			RTH3			LTH1			LTH2			LTH3			RTB1			RTB2			RTB3			RLMAL			RMMAL			LTB1			LTB2			LTB3			RCAL			RTOE			RMT5			LCAL			LTOE			LMT5			LACR			RACR			CLAV			C7			LPSH			RUA1			RUA2			RUA3			RLEL			RMEL			LUA1			LUA2			LUA3			LLEL			LMEL			RFAsuperior			RFAradius			LFAsuperior			LFAradius			LFAulna			LASI			RFAulna			RPSI			
		X1	Y1	Z1	X2	Y2	Z2	X3	Y3	Z3	X4	Y4	Z4	X5	Y5	Z5	X6	Y6	Z6	X7	Y7	Z7	X8	Y8	Z8	X9	Y9	Z9	X10	Y10	Z10	X11	Y11	Z11	X12	Y12	Z12	X13	Y13	Z13	X14	Y14	Z14	X15	Y15	Z15	X16	Y16	Z16	X17	Y17	Z17	X18	Y18	Z18	X19	Y19	Z19	X20	Y20	Z20	X21	Y21	Z21	X22	Y22	Z22	X23	Y23	Z23	X24	Y24	Z24	X25	Y25	Z25	X26	Y26	Z26	X27	Y27	Z27	X28	Y28	Z28	X29	Y29	Z29	X30	Y30	Z30	X31	Y31	Z31	X32	Y32	Z32	X33	Y33	Z33	X34	Y34	Z34	X35	Y35	Z35	X36	Y36	Z36	X37	Y37	Z37	X38	Y38	Z38	X39	Y39	Z39	X40	Y40	Z40	X41	Y41	Z41	X42	Y42	Z42	X43	Y43	Z43	X44	Y44	Z44	X45	Y45	Z45	

83	1.02	1061.904249	1051.655435	-382.207991	878.963933	1072.132672	-534.389474	1033.982531	799.292788	-329.680501	1123.82429	753.571285	-367.166564	1087.005003	637.514496	-364.075313	948.986305	814.563636	-660.9731880000001	1026.457328	709.307652	-659.841912	980.34538	609.765128	-647.998198	1142.025403	395.196784	-421.482582	1106.089322	343.209649	-370.791546	1098.169986	217.022971	-415.446161	1041.195353	113.761671	-387.528498	1053.666703	130.312793	-470.58443	927.183601	405.366325	-631.158895	793.461755	424.068962	-647.166521	755.713523	318.854374	-619.4236079999999	972.9179810000001	92.853453	-444.92074	1198.676687	70.878415	-434.777063	1132.306282	57.562987	-358.900743	588.63811	328.599178	-569.5107860000001	662.791375	118.497832	-599.560463	601.783642	156.893863	-658.033096	1029.079015	1557.638284	-652.5947650000001	1019.159783	1525.523867	-341.392801	1087.55772	1463.174419	-474.069073	984.695664	1566.738669	-497.786864	947.328344	1520.104208	-669.259877	928.7894669999999	1411.092411	-244.336122	840.14375	1388.594325	-271.539001	820.721547	1341.865891	-221.90028	800.563005	1281.297339	-187.124855	783.0181250000001	1264.168924	-270.660242	951.612519	1440.254498	-735.4790819999999	884.897818	1366.721872	-730.0149740000001	904.898024	1324.965407	-789.018017	906.861098	1247.400569	-815.593072	862.196387	1233.927594	-734.792784	821.734684	1202.26758	-185.087835	999.629496	1113.034468	-223.99524	972.472237	1198.487906	-761.764617	1104.768161	1264.835718	-664.236115	1115.509435	1198.152499	-679.184061	1040.959535	1040.271929	-615.6269129999999	958.973149	1065.285568	-199.172866	887.344834	1074.287215	-447.474645	
84	1.03	1059.69025	1046.983168	-380.449602	875.927096	1066.546705	-534.3414780000001	1032.39628	795.594423	-329.65935	1122.274763	750.460496	-365.877159	1085.463465	634.1873000000001	-364.206587	952.1945919999999	809.874547	-658.7607829999999	1033.2053	706.609211	-659.114312	990.827192	606.374544	-645.694258	1135.622246	391.846134	-422.208891	1096.564604	342.323861	-371.450955	1083.940171	215.706454	-415.206114	1022.331026	114.385192	-387.596999	1035.438429	130.227579	-470.793477	941.358464	403.99345	-629.231373	807.837074	424.006083	-645.478662	769.214356	319.407601	-617.886934	953.2198529999999	93.48097300000001	-444.352597	1179.302512	69.64336299999999	-434.476897	1112.566342	57.274924	-358.294272	600.607753	329.551329	-567.664931	677.710585	121.052058	-600.888189	616.866176	159.730183	-659.012261	1027.707793	1552.042954	-652.701518	1019.239779	1519.209314	-339.385827	1087.619882	1458.998166	-473.250155	985.131949	1562.977935	-495.87566	945.592713	1515.13935	-668.236888	934.81993	1397.789762	-242.225773	845.763948	1373.477045	-266.374418	828.8118480000001	1325.886195	-216.642547	812.556253	1264.619988	-182.047326	793.062053	1247.406986	-265.492504	947.541055	1435.041636	-734.454418	880.305122	1361.379268	-728.109569	898.350846	1320.521621	-788.509354	899.549488	1243.665728	-816.1777080000001	856.435325	1229.573671	-734.510599	835.97355	1186.482853	-181.394475	1015.447242	1102.720715	-223.808787	964.506199	1189.881515	-765.501016	1102.741871	1246.462758	-670.3497	1110.153405	1179.966387	-687.941513	1039.02436	1034.357939	-615.274332	976.398324	1053.536269	-199.028162	884.142978	1069.779801	-447.320216	
85	1.04	1057.679199	1044.269081	-378.750651	873.669786	1062.626666	-534.0532909999999	1029.239721	791.783223	-329.716611	1118.359891	745.553938	-364.933267	1079.921253	629.572267	-364.862542	955.301436	806.871459	-656.6863540000001	1040.325622	705.906172	-658.011769	1001.340302	605.031176	-643.702439	1127.52372	387.78061	-421.949461	1084.760056	340.389849	-371.554546	1068.592639	213.624149	-414.993525	1003.034449	114.643894	-387.817829	1016.845929	129.737026	-471.156742	956.027145	403.606587	-627.780398	822.592403	424.281932	-643.6463230000001	783.7451119999999	319.682075	-616.553941	933.4603080000001	93.82665799999999	-444.161169	1159.724358	68.496229	-434.010761	1092.668381	57.083196	-357.649056	613.458599	328.810029	-565.859854	695.340787	122.663363	-601.812868	634.730439	161.455396	-659.886174	1026.29847	1547.742569	-652.501125	1019.686353	1514.004883	-338.058706	1087.465956	1455.726016	-472.975213	985.246773	1559.876343	-494.435181	943.796215	1511.589828	-666.901935	941.212402	1386.142158	-241.444689	851.928369	1359.27353	-262.226026	838.024509	1310.637112	-212.427263	826.440579	1248.496828	-177.905798	805.181506	1230.971528	-261.0865	943.314352	1431.285658	-732.768003	875.497762	1357.429805	-725.4784540000001	891.645358	1317.438041	-787.255412	892.2881159999999	1241.300168	-815.71451	850.764133	1226.387663	-733.496927	851.980587	1171.250381	-178.52564	1032.58744	1092.871297	-224.590839	956.360392	1182.511239	-768.966078	1099.938852	1228.437312	-676.409671	1103.739261	1162.542318	-697.062383	1037.044995	1030.502659	-615.044929	995.032565	1042.401422	-199.762271	881.904765	1066.286719	-447.199963	
86	1.05	1056.02818	1043.262116	-377.623955	872.244376	1060.338384	-533.3740309999999	1024.993632	788.334007	-329.761028	1112.99601	739.787777	-364.250266	1071.817739	624.716915	-366.009645	958.625506	804.930328	-655.236528	1047.862025	706.770176	-656.855287	1011.880497	605.128362	-642.3421049999999	1117.547786	383.384143	-422.259723	1071.786749	337.428942	-372.045864	1052.335054	211.048094	-415.324121	983.487339	114.803129	-388.142177	997.8101349999999	129.138697	-471.680173	970.984221	404.126095	-626.878334	837.521267	424.720792	-641.780769	799.083995	319.541334	-615.435791	913.597585	94.010565	-444.194776	1139.886161	67.809096	-433.544135	1072.600999	57.227363	-357.157858	627.109593	326.331047	-564.11689	715.388772	123.288729	-602.36805	655.123963	162.005921	-660.630903	1024.831675	1544.711781	-652.177155	1020.775566	1509.86814	-337.315216	1087.20449	1452.742461	-473.282219	984.691454	1557.137496	-493.50695	941.943868	1509.31013	-665.412355	947.5477090000001	1376.916281	-241.59956	858.534209	1346.330645	-259.159636	848.503978	1296.681239	-209.327618	841.834095	1233.685414	-174.965729	818.625211	1215.660029	-257.650695	939.123137	1428.841819	-730.623677	870.807367	1355.114472	-722.2489430000001	885.3040580000001	1315.866682	-785.286849	885.2569109999999	1240.443106	-814.235542	845.457735	1224.513517	-732.045715	869.63597	1157.299527	-176.779294	1050.991894	1084.529514	-226.914063	948.1632990000001	1176.86887	-772.188384	1096.02156	1211.663188	-682.005754	1096.164785	1146.898945	-706.299229	1035.31384	1028.849582	-614.723631	1014.914755	1032.962924	-201.676454	881.492667	1063.902479	-447.625718	
